REM DIRINDEX 1\2\4,1\2\5,1\2\6,1\3\7,1\3\8,1\3\9,1\3\10
REM DIRNAME cjc057,folder01,folder02,folder03,folder04,folder05,folder06,folder07,folder08,folder09
TITLE ""
FILE "b_041.mp3" MP3
  TRACK 01 AUDIO
    TITLE "0:"
    INDEX 01 00:00:00
  TRACK 02 AUDIO
    TITLE "7:cjc057_05399"
    INDEX 01 00:00:13
  TRACK 03 AUDIO
    TITLE "0:"
    INDEX 01 00:01:34
  TRACK 04 AUDIO
    TITLE "8:cjc057_05400"
    INDEX 01 00:01:64
  TRACK 05 AUDIO
    TITLE "0:"
    INDEX 01 00:03:27
  TRACK 06 AUDIO
    TITLE "9:cjc057_05401"
    INDEX 01 00:03:68
  TRACK 07 AUDIO
    TITLE "0:"
    INDEX 01 00:07:09
  TRACK 08 AUDIO
    TITLE "7:cjc057_05402"
    INDEX 01 00:08:15
  TRACK 09 AUDIO
    TITLE "0:"
    INDEX 01 00:09:22
  TRACK 10 AUDIO
    TITLE "8:cjc057_05403"
    INDEX 01 00:09:53
  TRACK 11 AUDIO
    TITLE "0:"
    INDEX 01 00:11:19
  TRACK 12 AUDIO
    TITLE "9:cjc057_05404"
    INDEX 01 00:11:58
  TRACK 13 AUDIO
    TITLE "0:"
    INDEX 01 00:16:16
  TRACK 14 AUDIO
    TITLE "7:cjc057_05405"
    INDEX 01 00:17:20
  TRACK 15 AUDIO
    TITLE "0:"
    INDEX 01 00:18:39
  TRACK 16 AUDIO
    TITLE "8:cjc057_05406"
    INDEX 01 00:18:68
  TRACK 17 AUDIO
    TITLE "0:"
    INDEX 01 00:20:63
  TRACK 18 AUDIO
    TITLE "9:cjc057_05407"
    INDEX 01 00:21:31
  TRACK 19 AUDIO
    TITLE "0:"
    INDEX 01 00:24:27
  TRACK 20 AUDIO
    TITLE "7:cjc057_05408"
    INDEX 01 00:25:29
  TRACK 21 AUDIO
    TITLE "0:"
    INDEX 01 00:26:44
  TRACK 22 AUDIO
    TITLE "8:cjc057_05409"
    INDEX 01 00:27:00
  TRACK 23 AUDIO
    TITLE "0:"
    INDEX 01 00:28:39
  TRACK 24 AUDIO
    TITLE "9:cjc057_05410"
    INDEX 01 00:29:05
  TRACK 25 AUDIO
    TITLE "0:"
    INDEX 01 00:31:47
  TRACK 26 AUDIO
    TITLE "7:cjc057_05411"
    INDEX 01 00:32:50
  TRACK 27 AUDIO
    TITLE "0:"
    INDEX 01 00:33:73
  TRACK 28 AUDIO
    TITLE "8:cjc057_05412"
    INDEX 01 00:34:22
  TRACK 29 AUDIO
    TITLE "0:"
    INDEX 01 00:35:55
  TRACK 30 AUDIO
    TITLE "9:cjc057_05413"
    INDEX 01 00:36:25
  TRACK 31 AUDIO
    TITLE "0:"
    INDEX 01 00:39:13
  TRACK 32 AUDIO
    TITLE "7:cjc057_05414"
    INDEX 01 00:40:17
  TRACK 33 AUDIO
    TITLE "0:"
    INDEX 01 00:41:36
  TRACK 34 AUDIO
    TITLE "8:cjc057_05415"
    INDEX 01 00:41:67
  TRACK 35 AUDIO
    TITLE "0:"
    INDEX 01 00:43:09
  TRACK 36 AUDIO
    TITLE "9:cjc057_05416"
    INDEX 01 00:43:48
  TRACK 37 AUDIO
    TITLE "0:"
    INDEX 01 00:47:05
  TRACK 38 AUDIO
    TITLE "7:cjc057_05417"
    INDEX 01 00:48:12
  TRACK 39 AUDIO
    TITLE "0:"
    INDEX 01 00:49:37
  TRACK 40 AUDIO
    TITLE "8:cjc057_05418"
    INDEX 01 00:49:67
  TRACK 41 AUDIO
    TITLE "0:"
    INDEX 01 00:50:74
  TRACK 42 AUDIO
    TITLE "9:cjc057_05419"
    INDEX 01 00:51:40
  TRACK 43 AUDIO
    TITLE "0:"
    INDEX 01 00:54:46
  TRACK 44 AUDIO
    TITLE "7:cjc057_05420"
    INDEX 01 00:55:51
  TRACK 45 AUDIO
    TITLE "0:"
    INDEX 01 00:57:01
  TRACK 46 AUDIO
    TITLE "8:cjc057_05421"
    INDEX 01 00:57:31
  TRACK 47 AUDIO
    TITLE "0:"
    INDEX 01 00:58:50
  TRACK 48 AUDIO
    TITLE "9:cjc057_05422"
    INDEX 01 00:59:12
  TRACK 49 AUDIO
    TITLE "0:"
    INDEX 01 01:02:40
  TRACK 50 AUDIO
    TITLE "7:cjc057_05423"
    INDEX 01 01:03:47
  TRACK 51 AUDIO
    TITLE "0:"
    INDEX 01 01:05:01
  TRACK 52 AUDIO
    TITLE "8:cjc057_05424"
    INDEX 01 01:05:32
  TRACK 53 AUDIO
    TITLE "0:"
    INDEX 01 01:08:01
  TRACK 54 AUDIO
    TITLE "9:cjc057_05425"
    INDEX 01 01:08:44
  TRACK 55 AUDIO
    TITLE "0:"
    INDEX 01 01:12:48
  TRACK 56 AUDIO
    TITLE "7:cjc057_05426"
    INDEX 01 01:13:47
  TRACK 57 AUDIO
    TITLE "0:"
    INDEX 01 01:14:53
  TRACK 58 AUDIO
    TITLE "8:cjc057_05427"
    INDEX 01 01:15:09
  TRACK 59 AUDIO
    TITLE "0:"
    INDEX 01 01:16:18
  TRACK 60 AUDIO
    TITLE "9:cjc057_05428"
    INDEX 01 01:16:60
  TRACK 61 AUDIO
    TITLE "0:"
    INDEX 01 01:19:21
